<svg width="18" height="14" viewBox="0 0 18 14" fill="none" xmlns="http://www.w3.org/2000/svg">
<path d="M17.3327 3.28125V11.1687C17.3327 11.8064 17.0891 12.42 16.6516 12.884C16.2141 13.3479 15.6159 13.6272 14.9793 13.6646L14.8327 13.6687H3.16602C2.52834 13.6688 1.91475 13.4251 1.4508 12.9877C0.986843 12.5502 0.707593 11.952 0.670182 11.3154L0.666016 11.1687V3.28125L8.53685 8.52875L8.63352 8.58375C8.74744 8.63941 8.87256 8.66834 8.99935 8.66834C9.12614 8.66834 9.25126 8.63941 9.36518 8.58375L9.46185 8.52875L17.3327 3.28125Z" fill="currentColor"/>
<path d="M14.8329 0.335938C15.7329 0.335938 16.5221 0.810938 16.9621 1.5251L8.99961 6.83344L1.03711 1.5251C1.2461 1.18579 1.53318 0.901354 1.87442 0.695512C2.21565 0.48967 2.60115 0.368385 2.99878 0.341771L3.16628 0.335938H14.8329Z" fill="currentColor"/>
</svg>
