<svg width="20" height="20" viewBox="0 0 20 20" fill="none" xmlns="http://www.w3.org/2000/svg">
<path d="M12.0453 14.5333C13.1233 14.2887 14.1513 13.8608 15.0845 13.2683L15.0453 13.2917C15.3715 13.0712 15.5989 12.7323 15.6795 12.3469C15.76 11.9615 15.6872 11.56 15.4766 11.2273C15.266 10.8947 14.9342 10.6572 14.5514 10.5651C14.1686 10.473 13.765 10.5337 13.4262 10.7342L13.4328 10.73C12.4462 11.3558 11.2453 11.7267 9.95785 11.7267C8.67035 11.7267 7.46868 11.355 6.45618 10.7142L6.48285 10.73C6.14497 10.5173 5.73668 10.4468 5.34703 10.5339C4.95738 10.621 4.61798 10.8586 4.40285 11.195L4.39952 11.2008V11.205C4.18628 11.5429 4.11567 11.9515 4.20314 12.3414C4.29061 12.7313 4.52903 13.0706 4.86618 13.285L4.87202 13.2883C5.77406 13.8602 6.76641 14.2753 7.80702 14.5158L7.87202 14.5283L4.98118 17.4158C4.839 17.5554 4.72611 17.7219 4.64912 17.9056C4.57214 18.0894 4.53261 18.2866 4.53285 18.4858C4.53285 18.8933 4.69535 19.2625 4.95785 19.5325L4.98285 19.5575C5.25452 19.83 5.63035 19.9983 6.04535 19.9983C6.46035 19.9983 6.83618 19.83 7.10785 19.5575L9.95868 16.7208L12.792 19.5592C12.9324 19.6996 13.099 19.811 13.2824 19.887C13.4658 19.963 13.6624 20.0021 13.8609 20.0022C14.0594 20.0022 14.256 19.9631 14.4394 19.8872C14.6229 19.8113 14.7895 19.6999 14.9299 19.5596C15.0703 19.4192 15.1817 19.2526 15.2577 19.0692C15.3337 18.8858 15.3729 18.6892 15.3729 18.4907C15.373 18.2922 15.3339 18.0956 15.258 17.9122C15.182 17.7287 15.0707 17.5621 14.9304 17.4217L12.0453 14.5333ZM9.95785 10.3233C10.9785 10.3223 11.976 10.0188 12.8242 9.451C13.6723 8.88323 14.3331 8.07675 14.723 7.13349C15.1129 6.19023 15.2145 5.15255 15.0147 4.15161C14.815 3.15068 14.323 2.23142 13.6009 1.51005C12.8789 0.788681 11.9591 0.297576 10.958 0.0988171C9.95687 -0.099942 8.91929 0.00256779 7.97641 0.393389C7.03353 0.784209 6.22768 1.4458 5.66073 2.29452C5.09378 3.14324 4.79118 4.141 4.79118 5.16167V5.16667C4.79383 6.53522 5.33934 7.84681 6.30799 8.81359C7.27665 9.78036 8.58929 10.3233 9.95785 10.3233ZM9.95785 3.025C10.3805 3.025 10.7936 3.15028 11.145 3.385C11.4965 3.61973 11.7704 3.95336 11.9323 4.34375C12.0942 4.73413 12.1367 5.16374 12.0545 5.57828C11.9723 5.99282 11.7691 6.37369 11.4705 6.67276C11.1719 6.97183 10.7913 7.17567 10.3769 7.25852C9.96248 7.34137 9.5328 7.29952 9.14217 7.13825C8.75154 6.97698 8.41747 6.70353 8.1822 6.35246C7.94693 6.00138 7.82101 5.58845 7.82035 5.16583V5.16417C7.82035 4.59711 8.0455 4.05326 8.44631 3.65214C8.84712 3.25101 9.3908 3.02544 9.95785 3.025Z" fill="currentColor"/>
</svg>
