<svg width="20" height="20" viewBox="0 0 20 20" fill="none" xmlns="http://www.w3.org/2000/svg">
<path d="M15 18.3346C14.3056 18.3346 13.7153 18.0916 13.2292 17.6055C12.7431 17.1194 12.5 16.5291 12.5 15.8346C12.5 15.7374 12.5069 15.6366 12.5208 15.5321C12.5347 15.4282 12.5556 15.3346 12.5833 15.2513L6.70833 11.8346C6.47222 12.043 6.20833 12.206 5.91667 12.3238C5.625 12.4421 5.31944 12.5013 5 12.5013C4.30556 12.5013 3.71528 12.2582 3.22917 11.7721C2.74306 11.286 2.5 10.6957 2.5 10.0013C2.5 9.30686 2.74306 8.71658 3.22917 8.23047C3.71528 7.74436 4.30556 7.5013 5 7.5013C5.31944 7.5013 5.625 7.56019 5.91667 7.67797C6.20833 7.7963 6.47222 7.95964 6.70833 8.16797L12.5833 4.7513C12.5556 4.66797 12.5347 4.57436 12.5208 4.47047C12.5069 4.36602 12.5 4.26519 12.5 4.16797C12.5 3.47352 12.7431 2.88325 13.2292 2.39714C13.7153 1.91102 14.3056 1.66797 15 1.66797C15.6944 1.66797 16.2847 1.91102 16.7708 2.39714C17.2569 2.88325 17.5 3.47352 17.5 4.16797C17.5 4.86241 17.2569 5.45269 16.7708 5.9388C16.2847 6.42491 15.6944 6.66797 15 6.66797C14.6806 6.66797 14.375 6.6088 14.0833 6.49047C13.7917 6.37269 13.5278 6.20964 13.2917 6.0013L7.41667 9.41797C7.44444 9.5013 7.46528 9.59491 7.47917 9.6988C7.49306 9.80325 7.5 9.90408 7.5 10.0013C7.5 10.0985 7.49306 10.1991 7.47917 10.303C7.46528 10.4074 7.44444 10.5013 7.41667 10.5846L13.2917 14.0013C13.5278 13.793 13.7917 13.6296 14.0833 13.5113C14.375 13.3935 14.6806 13.3346 15 13.3346C15.6944 13.3346 16.2847 13.5777 16.7708 14.0638C17.2569 14.5499 17.5 15.1402 17.5 15.8346C17.5 16.5291 17.2569 17.1194 16.7708 17.6055C16.2847 18.0916 15.6944 18.3346 15 18.3346Z" fill="currentColor"/>
</svg>
