<svg width="20" height="20" viewBox="0 0 20 20" fill="none" xmlns="http://www.w3.org/2000/svg">
<path d="M18.3333 12.5C18.3333 15.725 15.725 18.3333 12.5 18.3333L13.375 16.875" stroke="currentColor" stroke-width="1.25" stroke-linecap="round" stroke-linejoin="round"/>
<path d="M1.66675 7.49996C1.66675 4.27496 4.27508 1.66663 7.50008 1.66663L6.62508 3.12496" stroke="currentColor" stroke-width="1.25" stroke-linecap="round" stroke-linejoin="round"/>
<path d="M1.85185 18.4074H0L2.54428 14.7359H4.31562L1.85185 18.4074ZM6.66667 18.4074H4.91143V11H6.66667V18.4074ZM5.55556 14.2367V15.5572H3.25282C2.74826 15.5572 2.28127 15.482 1.85185 15.3317C1.42244 15.1707 1.0789 14.9238 0.821256 14.591C0.563607 14.2475 0.434783 13.8019 0.434783 13.2544C0.434783 12.7069 0.563607 12.2721 0.821256 11.9501C1.0789 11.6173 1.42244 11.3757 1.85185 11.2254C2.28127 11.0751 2.74826 11 3.25282 11H5.55556V12.4493H3.39775C3.12936 12.4493 2.90392 12.4815 2.72142 12.5459C2.53892 12.6103 2.39936 12.7069 2.30274 12.8357C2.20612 12.9646 2.15781 13.131 2.15781 13.3349C2.15781 13.5497 2.20612 13.7214 2.30274 13.8502C2.39936 13.9791 2.53892 14.0757 2.72142 14.1401C2.90392 14.2045 3.12936 14.2367 3.39775 14.2367H5.55556Z" fill="currentColor"/>
<path d="M14.7179 5.27975C14.7179 5.50039 14.7757 5.68427 14.8913 5.83136C15.0173 5.97846 15.1802 6.09404 15.3798 6.17809C15.5795 6.25164 15.8054 6.28842 16.0575 6.28842C16.4253 6.28842 16.7562 6.23063 17.0504 6.11505C17.3446 5.99948 17.5758 5.8156 17.7439 5.56344C17.912 5.31127 17.9961 4.97505 17.9961 4.55477L18.2482 5.37431C18.2482 5.83662 18.1274 6.23588 17.8857 6.5721C17.6441 6.89782 17.3184 7.14999 16.9086 7.32861C16.4988 7.49672 16.0418 7.58077 15.5374 7.58077C15.0646 7.58077 14.6338 7.49672 14.2451 7.32861C13.8668 7.16049 13.5621 6.91358 13.331 6.58786C13.1103 6.25164 13 5.83662 13 5.34279C13 4.84896 13.1261 4.42343 13.3783 4.06619C13.6304 3.70896 13.9877 3.43578 14.45 3.24665C14.9228 3.05753 15.4744 2.96296 16.1048 2.96296C16.5251 2.96296 16.8981 3.0155 17.2238 3.12057C17.56 3.22564 17.8385 3.34647 18.0591 3.48306C18.2797 3.61965 18.4321 3.74048 18.5162 3.84555V4.74389C18.1904 4.50223 17.8595 4.32887 17.5232 4.2238C17.187 4.10822 16.7983 4.05043 16.357 4.05043C15.9997 4.05043 15.695 4.10297 15.4429 4.20804C15.2012 4.3026 15.0173 4.44444 14.8913 4.63357C14.7757 4.81219 14.7179 5.02758 14.7179 5.27975ZM14.3396 2.08038L13.6619 0.866824C13.9877 0.667192 14.4027 0.472813 14.907 0.283688C15.4113 0.0945627 15.9892 0 16.6407 0C17.2396 0 17.7649 0.0893091 18.2167 0.267927C18.6685 0.446546 19.0205 0.703966 19.2727 1.04019C19.5353 1.3659 19.6667 1.77042 19.6667 2.25374V7.42317H17.9961V2.44287C17.9961 2.10665 17.8542 1.84923 17.5705 1.67061C17.2973 1.48148 16.9611 1.38692 16.5619 1.38692C16.2151 1.38692 15.8947 1.42895 15.6005 1.513C15.3063 1.59706 15.0489 1.69687 14.8282 1.81245C14.6181 1.91752 14.4552 2.00683 14.3396 2.08038Z" fill="currentColor"/>
</svg>
