<svg width="20" height="20" viewBox="0 0 20 20" fill="none" xmlns="http://www.w3.org/2000/svg">
<path d="M18.3333 12.5C18.3333 15.725 15.725 18.3333 12.5 18.3333L13.375 16.875" stroke="currentColor" stroke-width="1.25" stroke-linecap="round" stroke-linejoin="round"/>
<path d="M1.66663 7.49996C1.66663 4.27496 4.27496 1.66663 7.49996 1.66663L6.62496 3.12496" stroke="currentColor" stroke-width="1.25" stroke-linecap="round" stroke-linejoin="round"/>
<path d="M14.8519 7.40741H13L15.5443 3.73591H17.3156L14.8519 7.40741ZM19.6667 7.40741H17.9114V0H19.6667V7.40741ZM18.5556 3.23672V4.55717H16.2528C15.7483 4.55717 15.2813 4.48202 14.8519 4.33172C14.4224 4.17069 14.0789 3.92378 13.8213 3.59098C13.5636 3.24745 13.4348 2.80193 13.4348 2.25443C13.4348 1.70692 13.5636 1.27214 13.8213 0.95008C14.0789 0.617284 14.4224 0.375738 14.8519 0.225443C15.2813 0.0751476 15.7483 0 16.2528 0H18.5556V1.44928H16.3977C16.1294 1.44928 15.9039 1.48148 15.7214 1.54589C15.5389 1.61031 15.3994 1.70692 15.3027 1.83575C15.2061 1.96457 15.1578 2.13097 15.1578 2.33494C15.1578 2.54965 15.2061 2.72142 15.3027 2.85024C15.3994 2.97907 15.5389 3.07568 15.7214 3.1401C15.9039 3.20451 16.1294 3.23672 16.3977 3.23672H18.5556Z" fill="currentColor"/>
<path d="M1.71789 16.2797C1.71789 16.5004 1.77568 16.6843 1.89125 16.8314C2.01734 16.9785 2.18019 17.094 2.37983 17.1781C2.57946 17.2516 2.80536 17.2884 3.05753 17.2884C3.42527 17.2884 3.75624 17.2306 4.05043 17.1151C4.34463 16.9995 4.57578 16.8156 4.74389 16.5634C4.912 16.3113 4.99606 15.975 4.99606 15.5548L5.24823 16.3743C5.24823 16.8366 5.1274 17.2359 4.88574 17.5721C4.64408 17.8978 4.31836 18.15 3.90859 18.3286C3.49882 18.4967 3.04177 18.5808 2.53743 18.5808C2.06462 18.5808 1.63383 18.4967 1.24507 18.3286C0.866824 18.1605 0.562122 17.9136 0.330969 17.5879C0.110323 17.2516 0 16.8366 0 16.3428C0 15.849 0.126083 15.4234 0.378251 15.0662C0.630418 14.709 0.987654 14.4358 1.44996 14.2467C1.92277 14.0575 2.47439 13.963 3.10481 13.963C3.52509 13.963 3.89808 14.0155 4.2238 14.1206C4.56002 14.2256 4.83846 14.3465 5.0591 14.4831C5.27975 14.6196 5.4321 14.7405 5.51615 14.8455V15.7439C5.19044 15.5022 4.85947 15.3289 4.52325 15.2238C4.18702 15.1082 3.79827 15.0504 3.35697 15.0504C2.99974 15.0504 2.69504 15.103 2.44287 15.208C2.20121 15.3026 2.01734 15.4444 1.89125 15.6336C1.77568 15.8122 1.71789 16.0276 1.71789 16.2797ZM1.33964 13.0804L0.661938 11.8668C0.987654 11.6672 1.40268 11.4728 1.90701 11.2837C2.41135 11.0946 2.98923 11 3.64066 11C4.23956 11 4.76491 11.0893 5.21671 11.2679C5.66851 11.4465 6.02049 11.704 6.27266 12.0402C6.53533 12.3659 6.66667 12.7704 6.66667 13.2537V18.4232H4.99606V13.4429C4.99606 13.1066 4.85422 12.8492 4.57053 12.6706C4.29735 12.4815 3.96112 12.3869 3.56186 12.3869C3.21513 12.3869 2.89467 12.4289 2.60047 12.513C2.30628 12.5971 2.04886 12.6969 1.82821 12.8125C1.61807 12.9175 1.45521 13.0068 1.33964 13.0804Z" fill="currentColor"/>
</svg>
