<svg width="20" height="20" viewBox="0 0 20 20" fill="none" xmlns="http://www.w3.org/2000/svg">
<path d="M19.5481 4.81862C19.3389 5.48712 19.0328 6.12135 18.6397 6.70112L18.6556 6.67612C18.2822 7.29834 17.8364 8.01723 17.3181 8.83279C16.8736 9.47668 16.6384 9.81001 16.6122 9.83279C16.4934 9.98152 16.4166 10.1593 16.3897 10.3478L16.3889 10.3536C16.4101 10.5234 16.489 10.6808 16.6122 10.7995L16.9456 11.1711C18.7289 13.0039 19.732 14.2672 19.9547 14.9611C19.997 15.0751 20.0106 15.1977 19.9943 15.3182C19.978 15.4387 19.9324 15.5533 19.8614 15.652L19.8631 15.6495C19.7792 15.736 19.6769 15.8026 19.5638 15.8442C19.4507 15.8859 19.3297 15.9017 19.2097 15.8903H19.2131H17.0164C16.7356 15.8903 16.4772 15.792 16.2747 15.6286L16.2772 15.6303C15.9881 15.3932 15.7227 15.1287 15.4847 14.8403L15.4772 14.8303C15.0933 14.3964 14.7528 14.0311 14.4556 13.7345C13.4656 12.7933 12.735 12.3228 12.2639 12.3228C12.1119 12.3092 11.9598 12.3489 11.8339 12.4353L11.8364 12.4336C11.7823 12.5014 11.7426 12.5796 11.7197 12.6632C11.6968 12.7469 11.6911 12.8344 11.7031 12.9203V12.917C11.6707 13.3058 11.6601 13.6961 11.6714 14.0861V14.072V15.0378C11.6951 15.1532 11.6869 15.2728 11.6479 15.3839C11.6089 15.495 11.5404 15.5934 11.4497 15.6686L11.4489 15.6695C11.0269 15.8601 10.5623 15.9368 10.1014 15.892L10.1122 15.8928C8.85073 15.8711 7.61903 15.5058 6.54974 14.8361L6.57891 14.8528C5.3459 14.1094 4.28904 13.1072 3.48141 11.9153L3.45891 11.8803C2.67494 10.8349 1.98582 9.72155 1.39974 8.55362L1.34141 8.42529C0.950873 7.66899 0.607712 6.88915 0.313906 6.09029L0.263906 5.93612C0.127686 5.5214 0.0409728 5.09203 0.00557292 4.65695L0.00390625 4.63612C0.00390625 4.21501 0.251684 4.00445 0.74724 4.00445H2.93891C3.16048 3.9871 3.38043 4.05407 3.55474 4.19195L3.55307 4.19029C3.71974 4.37279 3.84307 4.59695 3.90391 4.84695L3.90641 4.85695C4.26848 5.89388 4.71065 6.90109 5.22891 7.86945L5.17307 7.75529C5.54765 8.51614 6.00096 9.23563 6.52557 9.90195L6.50641 9.87612C6.95085 10.4217 7.29752 10.6945 7.54641 10.6945L7.57307 10.6953C7.63167 10.6954 7.68925 10.68 7.74002 10.6508C7.79078 10.6215 7.83294 10.5794 7.86224 10.5286L7.86307 10.527C7.94286 10.3181 7.97448 10.0939 7.95557 9.87112V9.87612V6.64362C7.94 6.27712 7.84923 5.91773 7.68891 5.58779L7.69557 5.60362C7.59836 5.39393 7.47212 5.19896 7.32057 5.02445L7.32307 5.02779C7.18333 4.88828 7.09243 4.70734 7.06391 4.51195L7.06307 4.50695C7.06307 4.36529 7.12807 4.23779 7.22974 4.15445L7.23057 4.15362C7.3352 4.0578 7.47204 4.00485 7.61391 4.00529H11.0756C11.1625 3.99515 11.2505 4.00674 11.3318 4.03903C11.4131 4.07132 11.4851 4.12329 11.5414 4.19029L11.5422 4.19112C11.6475 4.3856 11.6936 4.60662 11.6747 4.82695V4.82279V9.13362C11.6615 9.30364 11.701 9.47362 11.7881 9.62029L11.7864 9.61695C11.8169 9.66256 11.8582 9.69996 11.9066 9.72583C11.955 9.7517 12.009 9.76525 12.0639 9.76529C12.2044 9.75616 12.3408 9.70954 12.4572 9.63029L12.4547 9.63195C12.6814 9.47612 12.8764 9.29862 13.0456 9.09779L13.0489 9.09362C13.5637 8.5111 14.0253 7.88359 14.4281 7.21862L14.4606 7.16029C14.7472 6.68529 15.0572 6.10029 15.3381 5.49945L15.3897 5.37695L15.7614 4.63362C15.8268 4.44142 15.9531 4.27575 16.121 4.16164C16.2889 4.04753 16.4894 3.99119 16.6922 4.00112H16.6897H18.8822C19.4745 4.00112 19.6967 4.27362 19.5489 4.81862H19.5481Z" fill="currentColor"/>
</svg>
