<svg width="66" height="51" viewBox="0 0 66 51" fill="none" xmlns="http://www.w3.org/2000/svg">
<path d="M12.8333 25.5C9.04445 25.7464 6.05 27.0399 3.85 29.3804C1.65 31.5978 0.549998 34.4928 0.549998 38.0652C0.549998 42.2536 1.83333 45.4565 4.4 47.6739C6.96666 49.8913 9.9 51 13.2 51C13.5667 51 13.9333 51 14.3 51C16.8667 51 19.0667 50.4456 20.9 49.337C22.6111 48.2283 24.0778 46.8732 25.3 45.2717C26.4 43.5471 27.1944 41.6377 27.6833 39.5435C28.1722 37.3261 28.4167 35.1087 28.4167 32.8913C28.4167 29.5652 27.8056 26.1775 26.5833 22.7283C25.3611 19.279 23.7111 16.0761 21.6333 13.1196C19.4333 10.0399 16.9889 7.3913 14.3 5.17391C11.4889 2.83333 8.49444 1.1087 5.31666 0L0 7.39131C3.05555 9.48551 5.74444 12.1341 8.06667 15.337C10.3889 18.4167 11.9778 21.8044 12.8333 25.5ZM50.4167 25.5C46.6278 25.7464 43.6333 27.0399 41.4333 29.3804C39.2333 31.5978 38.1333 34.4928 38.1333 38.0652C38.1333 42.2536 39.4167 45.4565 41.9833 47.6739C44.55 49.8913 47.5444 51 50.9667 51C51.3333 51 51.7 51 52.0667 51C54.6333 51 56.8333 50.4456 58.6667 49.337C60.3778 48.2283 61.7833 46.8732 62.8833 45.2717C63.9833 43.5471 64.7778 41.6377 65.2667 39.5435C65.7556 37.3261 66 35.1087 66 32.8913C66 29.5652 65.3889 26.1775 64.1667 22.7283C62.9444 19.279 61.2944 16.0761 59.2167 13.1196C57.0167 10.0399 54.5722 7.3913 51.8833 5.17391C49.0722 2.83333 46.0778 1.1087 42.9 0L37.5833 7.39131C40.6389 9.48551 43.3278 12.1341 45.65 15.337C47.9722 18.4167 49.5611 21.8044 50.4167 25.5Z" fill="#C0ADD8"/>
</svg>
