<svg width="68" height="69" viewBox="0 0 68 69" fill="none" xmlns="http://www.w3.org/2000/svg">
<g id="Frame 1948755300">
<path id="&#209;&#131;" d="M67.0797 16.9069C65.2708 20.5248 63.6705 23.5862 62.279 26.0909C60.8875 28.5261 59.322 30.6481 57.5826 32.4571C55.9128 34.1965 53.8603 35.7272 51.4252 37.0491C49.0596 38.4406 45.9983 39.7973 42.2412 41.1193C40.5714 44.0415 38.658 47.1376 36.5012 50.4076C34.4139 53.6777 32.0483 56.6695 29.4045 59.3829C26.7606 62.1659 23.8036 64.4272 20.5335 66.1665C17.2635 67.9755 13.7151 68.88 9.88846 68.88C7.24458 68.88 5.19209 68.4973 3.731 67.732C2.26991 66.9667 1.26106 65.9578 0.704455 64.7055C0.0782725 63.4531 -0.130455 62.0616 0.078273 60.5309C0.287001 59.0698 0.774031 57.6087 1.53936 56.1476C2.51342 54.1995 3.90494 52.5297 5.71391 51.1382C7.4533 49.7467 9.33185 48.5639 11.3495 47.5898C14.8979 45.92 18.9333 44.5285 23.4557 43.4153C28.0477 42.3716 32.4658 41.2584 36.7099 40.0756C37.684 38.3362 38.6232 36.3881 39.5277 34.2313C40.4322 32.0744 41.2671 29.9176 42.0325 27.7607C42.7978 25.6039 43.4935 23.5514 44.1197 21.6033C44.7459 19.6552 45.2677 17.9853 45.6852 16.5938C44.7807 18.1941 43.7023 20.1074 42.4499 22.3338C41.1975 24.4907 39.7712 26.5779 38.171 28.5956C36.6403 30.5438 34.9357 32.2484 33.0572 33.7095C31.2482 35.101 29.3349 35.7967 27.3172 35.7967C26.7606 35.7967 26.1344 35.7619 25.4386 35.6924C24.8125 35.5532 24.1863 35.3097 23.5601 34.9618C22.9339 34.6139 22.3425 34.1269 21.7859 33.5007C21.2989 32.8745 20.951 32.0744 20.7423 31.1004C20.5335 29.9872 20.4988 28.9087 20.6379 27.8651C20.7771 26.8215 21.0206 25.8126 21.3685 24.8385C21.7859 23.7949 22.2382 22.8208 22.7252 21.9164C23.2818 20.9423 23.8036 19.9682 24.2906 18.9942C23.9428 18.9942 23.5949 18.8898 23.247 18.6811C22.9687 18.4724 23.0035 18.0201 23.3514 17.3244C23.6992 16.7678 24.0123 16.1764 24.2906 15.5502C24.5689 14.924 24.882 14.2978 25.2299 13.6716C26.2735 11.6539 27.3172 9.63624 28.3608 7.61854C29.4045 5.60085 30.3089 3.79188 31.0743 2.19164C31.4917 1.35673 32.0135 0.800121 32.6397 0.521818C33.3355 0.173939 34.1704 0 35.1445 0H41.5106C41.0236 0.417453 40.3974 0.869695 39.6321 1.35673C38.9363 1.84376 38.2754 2.64388 37.6492 3.75709C35.8402 6.81843 34.1704 9.87976 32.6397 12.9411C31.1786 16.0024 29.7175 19.0985 28.2565 22.2295C27.0041 24.9429 26.3083 27.2041 26.1692 29.0131C26.03 30.8221 26.2735 32.1092 26.8997 32.8745C27.5955 33.5703 28.6043 33.6747 29.9263 33.1876C31.2482 32.631 32.7441 31.3787 34.4139 29.4305C35.875 27.7607 37.3709 25.7778 38.9016 23.4818C40.4322 21.1858 41.8933 18.8202 43.2848 16.3851C44.7459 13.8804 46.1026 11.4104 47.355 8.97527C48.6769 6.54012 49.8249 4.27891 50.799 2.19164C51.2165 1.35673 51.7383 0.800121 52.3645 0.521818C53.0602 0.173939 53.8951 0 54.8692 0H60.5048C59.5308 0.695757 58.6611 1.49588 57.8957 2.40036C57.2 3.23527 56.539 4.20933 55.9128 5.32255C55.2866 6.43576 54.6952 7.72291 54.1386 9.184C53.582 10.5755 52.9906 12.141 52.3645 13.8804C51.0425 17.4287 49.6858 21.2554 48.2943 25.3604C46.9723 29.4653 45.546 33.6051 44.0154 37.7796C45.1286 37.4318 46.3462 36.9795 47.6681 36.4229C49.0596 35.8663 50.4163 35.1705 51.7383 34.3356C53.0602 33.5007 54.3474 32.5267 55.5997 31.4135C56.8521 30.2307 58.0001 28.9087 59.0437 27.4476C60.644 25.0821 62.0007 22.8209 63.1139 20.664C64.2271 18.5072 65.062 16.9417 65.6186 15.9676C66.1057 15.0632 66.5927 14.7501 67.0797 15.0284C67.5668 15.2371 67.5668 15.8633 67.0797 16.9069ZM34.8314 43.4153C33.1615 43.8327 31.3526 44.285 29.4045 44.772C27.5259 45.259 25.6126 45.7808 23.6645 46.3375C21.7163 46.8941 19.8378 47.4507 18.0288 48.0073C16.2199 48.6335 14.5848 49.2596 13.1237 49.8858C10.4798 51.0686 8.28821 52.5993 6.54882 54.4778C4.73985 56.3564 3.55706 58.2001 3.00045 60.0091C2.37427 61.8876 2.40906 63.4879 3.10482 64.8098C3.80058 66.1318 5.26167 66.7927 7.48809 66.7927C9.78409 66.7927 12.1497 66.0622 14.5848 64.6011C17.02 63.2096 19.3508 61.505 21.5772 59.4873C23.8732 57.4696 25.9605 55.3475 27.839 53.1211C29.7871 50.8947 31.3526 48.9465 32.5354 47.2767C32.8832 46.7201 33.2311 46.0939 33.579 45.3982C33.9965 44.772 34.4139 44.111 34.8314 43.4153Z" fill="#8B33FC"/>
</g>
</svg>
