<svg width="101" height="109" viewBox="0 0 101 109" fill="none" xmlns="http://www.w3.org/2000/svg">
<g id="Frame 1948755246">
<path id="&#208;&#183;" d="M99.5677 27.824C97.709 31.6507 95.7957 35.368 93.8277 38.976C91.969 42.4747 89.8917 45.7 87.5957 48.652C85.409 51.4947 82.949 53.9547 80.2157 56.032C77.5917 58 74.5303 59.312 71.0317 59.968C66.877 71.5573 60.645 81.5067 52.3357 89.816C44.1357 98.2347 34.077 104.193 22.1597 107.692C18.005 108.895 14.2877 109.113 11.0077 108.348C7.72765 107.583 5.15832 106.107 3.29965 103.92C1.44099 101.843 0.456987 99.2187 0.347653 96.048C0.23832 92.9867 1.27699 89.7613 3.46365 86.372C5.65032 83.092 8.93032 80.14 13.3037 77.516C17.5677 75.0013 22.3783 72.7053 27.7357 70.628C33.093 68.5507 38.669 66.6373 44.4637 64.888C50.2583 63.1387 55.7797 61.444 61.0277 59.804C61.6837 57.836 62.285 55.4853 62.8317 52.752C63.4877 49.9093 63.8157 47.2853 63.8157 44.88C63.925 42.3653 63.5423 40.3427 62.6677 38.812C61.9023 37.172 60.317 36.5707 57.9117 37.008C56.8183 37.5547 55.6703 38.1013 54.4677 38.648C53.265 39.0853 52.0077 39.5773 50.6957 40.124C50.0397 40.3427 49.4383 40.3427 48.8917 40.124C48.4543 39.9053 48.1263 39.632 47.9077 39.304C47.7983 38.8667 47.853 38.4293 48.0717 37.992C48.2903 37.5547 48.7277 37.2267 49.3837 37.008C52.117 36.2427 54.4677 35.204 56.4357 33.892C58.513 32.58 60.2623 31.2133 61.6837 29.792C63.2143 28.3707 64.4717 27.0587 65.4557 25.856C66.4397 24.544 67.205 23.4507 67.7517 22.576C69.7197 19.624 70.321 16.9453 69.5557 14.54C68.7903 12.0253 67.2597 10.3307 64.9637 9.45599C62.777 8.47199 60.2077 8.58133 57.2557 9.78399C54.3037 10.8773 51.5703 13.556 49.0557 17.82C48.509 18.6947 47.853 19.788 47.0877 21.1C46.4317 22.412 45.6663 23.8333 44.7917 25.364C44.0263 26.7853 43.261 28.316 42.4957 29.956C41.7303 31.4867 41.0197 32.908 40.3637 34.22C39.7077 35.6413 38.997 36.188 38.2317 35.86C37.4663 35.4227 37.521 34.2747 38.3957 32.416C39.9263 29.5733 41.457 26.5667 42.9877 23.396C44.5183 20.2253 46.213 17 48.0717 13.72C50.5863 9.12799 53.593 5.79332 57.0917 3.71599C60.6997 1.52932 64.089 0.435991 67.2597 0.435991C70.5396 0.326656 73.273 1.20132 75.4597 3.05999C77.6463 4.80933 78.685 7.32399 78.5757 10.604C78.357 14.212 76.9357 18.0933 74.3117 22.248C71.6877 26.4027 67.7517 30.0653 62.5037 33.236C66.6583 33.1267 69.5557 34.1107 71.1957 36.188C72.8357 38.2653 73.7103 40.8347 73.8197 43.896C73.8197 44.4427 73.765 45.2627 73.6557 46.356C73.5463 47.4493 73.3823 48.5973 73.1637 49.8C73.0543 51.0027 72.8903 52.1507 72.6717 53.244C72.453 54.3373 72.2343 55.212 72.0157 55.868C74.749 55.3213 77.2637 54.1187 79.5597 52.26C81.965 50.4013 84.2063 48.16 86.2837 45.536C88.361 42.8027 90.2743 39.796 92.0237 36.516C93.8823 33.236 95.6317 29.9013 97.2717 26.512C98.037 25.0907 98.8023 24.544 99.5677 24.872C100.333 25.2 100.333 26.184 99.5677 27.824ZM59.5517 63.904C55.9437 65.1067 52.2263 66.2 48.3997 67.184C44.573 68.2773 40.8557 69.3707 37.2477 70.464C33.749 71.6667 30.4143 72.8693 27.2437 74.072C24.073 75.384 21.285 76.7507 18.8797 78.172C15.2717 80.2493 12.3743 82.9827 10.1877 86.372C7.89165 89.7613 6.52499 92.9867 6.08765 96.048C5.65032 99.1093 6.30632 101.569 8.05565 103.428C9.80499 105.287 12.8117 105.779 17.0757 104.904C20.2463 104.248 23.8543 102.827 27.8997 100.64C31.8357 98.4533 35.7717 95.6107 39.7077 92.112C43.753 88.6133 47.525 84.4587 51.0237 79.648C54.5223 74.9467 57.365 69.6987 59.5517 63.904Z" fill="#7F1AFF"/>
</g>
</svg>
