<svg width="0" height="0" class="hidden">
  <symbol fill="none" xmlns="http://www.w3.org/2000/svg" viewBox="0 0 20 20" id="ic_arr_hor">
    <path d="M13.5 4L7 10.5L13.5 17" stroke="currentColor" stroke-width="1.5"></path>
  </symbol>
  <symbol fill="none" xmlns="http://www.w3.org/2000/svg" viewBox="0 0 20 20" id="ic_arr_ver">
    <path d="M5.5 7.75L10 12.25L14.5 7.75" stroke="currentColor" stroke-width="1.5" stroke-linecap="round" stroke-linejoin="round"></path>
  </symbol>
  <symbol fill="none" xmlns="http://www.w3.org/2000/svg" viewBox="0 0 22 18" id="ic_arrow_hor">
    <path d="M11.6129 1L20 9M20 9L11.6129 17M20 9H0" stroke="currentColor" stroke-width="1.5"></path>
  </symbol>
  <symbol fill="none" xmlns="http://www.w3.org/2000/svg" viewBox="0 0 16 16" id="ic_close">
    <path d="M2 2L14 14" stroke="currentColor" stroke-linecap="round"></path>
    <path d="M14 2L2 14" stroke="currentColor" stroke-linecap="round"></path>
  </symbol>
  <symbol fill="none" xmlns="http://www.w3.org/2000/svg" viewBox="0 0 18 16" id="ic_menu">
    <path d="M1 3.49768H17M1 7.99768H17M1 12.4977H17" stroke="currentColor" stroke-linecap="round"></path>
  </symbol>
  <symbol fill="none" xmlns="http://www.w3.org/2000/svg" viewBox="0 0 16 16" id="ic_search">
    <path d="M14 14L11.1333 11.1333M12.6667 7.33333C12.6667 10.2789 10.2789 12.6667 7.33333 12.6667C4.38781 12.6667 2 10.2789 2 7.33333C2 4.38781 4.38781 2 7.33333 2C10.2789 2 12.6667 4.38781 12.6667 7.33333Z" stroke="currentColor" stroke-width="1.33333" stroke-linecap="round" stroke-linejoin="round"></path>
  </symbol>
  <symbol fill="none" xmlns="http://www.w3.org/2000/svg" viewBox="0 0 20 20" id="ic_tg">
    <path d="M18.3764 1.8593L0.657315 8.7275C-0.0557314 9.04734 -0.296903 9.68785 0.484971 10.0355L5.03067 11.4875L16.0216 4.6598C16.6217 4.23117 17.2361 4.34547 16.7074 4.81699L7.2677 13.4082L6.97118 17.044C7.24583 17.6053 7.74872 17.608 8.0695 17.3289L10.6811 14.845L15.154 18.2117C16.1929 18.8299 16.7581 18.4309 16.9816 17.2978L19.9154 3.33418C20.22 1.93945 19.7006 1.32492 18.3764 1.8593Z" fill="currentColor"></path>
  </symbol>
  <symbol fill="none" xmlns="http://www.w3.org/2000/svg" viewBox="0 0 16 17" id="ic_video_play">
    <path d="M14.6487 6.73123C16.0706 7.48172 16.0706 9.51828 14.6486 10.2688L2.93351 16.4518C1.60161 17.1547 8.6596e-08 16.189 1.5861e-07 14.683L7.49913e-07 2.31702C8.21926e-07 0.810988 1.60161 -0.154706 2.93352 0.548245L14.6487 6.73123Z" fill="currentColor"></path>
  </symbol>
  <symbol fill="none" xmlns="http://www.w3.org/2000/svg" viewBox="0 0 18 14" id="ic_email">
    <path d="M17.3327 3.28125V11.1687C17.3327 11.8064 17.0891 12.42 16.6516 12.884C16.2141 13.3479 15.6159 13.6272 14.9793 13.6646L14.8327 13.6687H3.16602C2.52834 13.6688 1.91475 13.4251 1.4508 12.9877C0.986843 12.5502 0.707593 11.952 0.670182 11.3154L0.666016 11.1687V3.28125L8.53685 8.52875L8.63352 8.58375C8.74744 8.63941 8.87256 8.66834 8.99935 8.66834C9.12614 8.66834 9.25126 8.63941 9.36518 8.58375L9.46185 8.52875L17.3327 3.28125Z" fill="currentColor"></path>
    <path d="M14.8329 0.335938C15.7329 0.335938 16.5221 0.810938 16.9621 1.5251L8.99961 6.83344L1.03711 1.5251C1.2461 1.18579 1.53318 0.901354 1.87442 0.695512C2.21565 0.48967 2.60115 0.368385 2.99878 0.341771L3.16628 0.335938H14.8329Z" fill="currentColor"></path>
  </symbol>
  <symbol fill="none" xmlns="http://www.w3.org/2000/svg" viewBox="0 0 20 20" id="ic_location">
    <path d="M10 1.25C8.17727 1.25207 6.42979 1.97706 5.14092 3.26592C3.85206 4.55479 3.12707 6.30227 3.125 8.125C3.125 14.0078 9.375 18.4508 9.64141 18.6367C9.74649 18.7103 9.87169 18.7498 10 18.7498C10.1283 18.7498 10.2535 18.7103 10.3586 18.6367C10.625 18.4508 16.875 14.0078 16.875 8.125C16.8729 6.30227 16.1479 4.55479 14.8591 3.26592C13.5702 1.97706 11.8227 1.25207 10 1.25ZM10 5.625C10.4945 5.625 10.9778 5.77162 11.3889 6.04633C11.8 6.32103 12.1205 6.71148 12.3097 7.16829C12.4989 7.62511 12.5484 8.12777 12.452 8.61273C12.3555 9.09768 12.1174 9.54314 11.7678 9.89277C11.4181 10.2424 10.9727 10.4805 10.4877 10.577C10.0028 10.6734 9.50011 10.6239 9.04329 10.4347C8.58648 10.2455 8.19603 9.92505 7.92133 9.51393C7.64662 9.1028 7.5 8.61945 7.5 8.125C7.5 7.46196 7.76339 6.82607 8.23223 6.35723C8.70107 5.88839 9.33696 5.625 10 5.625Z" fill="currentColor"></path>
  </symbol>
  <symbol fill="none" xmlns="http://www.w3.org/2000/svg" viewBox="0 0 20 20" id="ic_odnokl">
    <path d="M12.0453 14.5333C13.1233 14.2887 14.1513 13.8608 15.0845 13.2683L15.0453 13.2917C15.3715 13.0712 15.5989 12.7323 15.6795 12.3469C15.76 11.9615 15.6872 11.56 15.4766 11.2273C15.266 10.8947 14.9342 10.6572 14.5514 10.5651C14.1686 10.473 13.765 10.5337 13.4262 10.7342L13.4328 10.73C12.4462 11.3558 11.2453 11.7267 9.95785 11.7267C8.67035 11.7267 7.46868 11.355 6.45618 10.7142L6.48285 10.73C6.14497 10.5173 5.73668 10.4468 5.34703 10.5339C4.95738 10.621 4.61798 10.8586 4.40285 11.195L4.39952 11.2008V11.205C4.18628 11.5429 4.11567 11.9515 4.20314 12.3414C4.29061 12.7313 4.52903 13.0706 4.86618 13.285L4.87202 13.2883C5.77406 13.8602 6.76641 14.2753 7.80702 14.5158L7.87202 14.5283L4.98118 17.4158C4.839 17.5554 4.72611 17.7219 4.64912 17.9056C4.57214 18.0894 4.53261 18.2866 4.53285 18.4858C4.53285 18.8933 4.69535 19.2625 4.95785 19.5325L4.98285 19.5575C5.25452 19.83 5.63035 19.9983 6.04535 19.9983C6.46035 19.9983 6.83618 19.83 7.10785 19.5575L9.95868 16.7208L12.792 19.5592C12.9324 19.6996 13.099 19.811 13.2824 19.887C13.4658 19.963 13.6624 20.0021 13.8609 20.0022C14.0594 20.0022 14.256 19.9631 14.4394 19.8872C14.6229 19.8113 14.7895 19.6999 14.9299 19.5596C15.0703 19.4192 15.1817 19.2526 15.2577 19.0692C15.3337 18.8858 15.3729 18.6892 15.3729 18.4907C15.373 18.2922 15.3339 18.0956 15.258 17.9122C15.182 17.7287 15.0707 17.5621 14.9304 17.4217L12.0453 14.5333ZM9.95785 10.3233C10.9785 10.3223 11.976 10.0188 12.8242 9.451C13.6723 8.88323 14.3331 8.07675 14.723 7.13349C15.1129 6.19023 15.2145 5.15255 15.0147 4.15161C14.815 3.15068 14.323 2.23142 13.6009 1.51005C12.8789 0.788681 11.9591 0.297576 10.958 0.0988171C9.95687 -0.099942 8.91929 0.00256779 7.97641 0.393389C7.03353 0.784209 6.22768 1.4458 5.66073 2.29452C5.09378 3.14324 4.79118 4.141 4.79118 5.16167V5.16667C4.79383 6.53522 5.33934 7.84681 6.30799 8.81359C7.27665 9.78036 8.58929 10.3233 9.95785 10.3233ZM9.95785 3.025C10.3805 3.025 10.7936 3.15028 11.145 3.385C11.4965 3.61973 11.7704 3.95336 11.9323 4.34375C12.0942 4.73413 12.1367 5.16374 12.0545 5.57828C11.9723 5.99282 11.7691 6.37369 11.4705 6.67276C11.1719 6.97183 10.7913 7.17567 10.3769 7.25852C9.96248 7.34137 9.5328 7.29952 9.14217 7.13825C8.75154 6.97698 8.41747 6.70353 8.1822 6.35246C7.94693 6.00138 7.82101 5.58845 7.82035 5.16583V5.16417C7.82035 4.59711 8.0455 4.05326 8.44631 3.65214C8.84712 3.25101 9.3908 3.02544 9.95785 3.025Z" fill="currentColor"></path>
  </symbol>
  <symbol fill="none" xmlns="http://www.w3.org/2000/svg" viewBox="0 0 20 20" id="ic_phone">
    <path d="M17.2969 4.49609L15.2168 2.41797C15.0701 2.27059 14.8957 2.15366 14.7036 2.07389C14.5115 1.99412 14.3056 1.95308 14.0977 1.95313C13.6738 1.95313 13.2754 2.11914 12.9766 2.41797L10.7383 4.65625C10.5909 4.80298 10.474 4.97738 10.3942 5.16944C10.3144 5.3615 10.2734 5.56743 10.2734 5.77539C10.2734 6.19922 10.4395 6.59766 10.7383 6.89648L12.375 8.5332C11.9919 9.37766 11.4592 10.1459 10.8027 10.8008C10.1479 11.4589 9.37975 11.9935 8.53516 12.3789L6.89844 10.7422C6.75171 10.5948 6.5773 10.4779 6.38525 10.3981C6.19319 10.3183 5.98726 10.2773 5.7793 10.2773C5.35547 10.2773 4.95703 10.4434 4.6582 10.7422L2.41797 12.9785C2.27042 13.1255 2.15339 13.3003 2.07362 13.4927C1.99384 13.6851 1.95289 13.8913 1.95313 14.0996C1.95313 14.5234 2.11914 14.9219 2.41797 15.2207L4.49414 17.2969C4.9707 17.7754 5.62891 18.0469 6.30469 18.0469C6.44727 18.0469 6.58399 18.0352 6.71875 18.0117C9.35156 17.5781 11.9629 16.1777 14.0703 14.0723C16.1758 11.9688 17.5742 9.35938 18.0137 6.71875C18.1465 5.91211 17.8789 5.08203 17.2969 4.49609Z" fill="currentColor"></path>
  </symbol>
  <symbol fill="none" xmlns="http://www.w3.org/2000/svg" viewBox="0 0 20 20" id="ic_share">
    <path d="M15 18.3346C14.3056 18.3346 13.7153 18.0916 13.2292 17.6055C12.7431 17.1194 12.5 16.5291 12.5 15.8346C12.5 15.7374 12.5069 15.6366 12.5208 15.5321C12.5347 15.4282 12.5556 15.3346 12.5833 15.2513L6.70833 11.8346C6.47222 12.043 6.20833 12.206 5.91667 12.3238C5.625 12.4421 5.31944 12.5013 5 12.5013C4.30556 12.5013 3.71528 12.2582 3.22917 11.7721C2.74306 11.286 2.5 10.6957 2.5 10.0013C2.5 9.30686 2.74306 8.71658 3.22917 8.23047C3.71528 7.74436 4.30556 7.5013 5 7.5013C5.31944 7.5013 5.625 7.56019 5.91667 7.67797C6.20833 7.7963 6.47222 7.95964 6.70833 8.16797L12.5833 4.7513C12.5556 4.66797 12.5347 4.57436 12.5208 4.47047C12.5069 4.36602 12.5 4.26519 12.5 4.16797C12.5 3.47352 12.7431 2.88325 13.2292 2.39714C13.7153 1.91102 14.3056 1.66797 15 1.66797C15.6944 1.66797 16.2847 1.91102 16.7708 2.39714C17.2569 2.88325 17.5 3.47352 17.5 4.16797C17.5 4.86241 17.2569 5.45269 16.7708 5.9388C16.2847 6.42491 15.6944 6.66797 15 6.66797C14.6806 6.66797 14.375 6.6088 14.0833 6.49047C13.7917 6.37269 13.5278 6.20964 13.2917 6.0013L7.41667 9.41797C7.44444 9.5013 7.46528 9.59491 7.47917 9.6988C7.49306 9.80325 7.5 9.90408 7.5 10.0013C7.5 10.0985 7.49306 10.1991 7.47917 10.303C7.46528 10.4074 7.44444 10.5013 7.41667 10.5846L13.2917 14.0013C13.5278 13.793 13.7917 13.6296 14.0833 13.5113C14.375 13.3935 14.6806 13.3346 15 13.3346C15.6944 13.3346 16.2847 13.5777 16.7708 14.0638C17.2569 14.5499 17.5 15.1402 17.5 15.8346C17.5 16.5291 17.2569 17.1194 16.7708 17.6055C16.2847 18.0916 15.6944 18.3346 15 18.3346Z" fill="currentColor"></path>
  </symbol>
  <symbol fill="none" xmlns="http://www.w3.org/2000/svg" viewBox="0 0 20 20" id="ic_sort">
    <path d="M18.3333 12.5C18.3333 15.725 15.725 18.3333 12.5 18.3333L13.375 16.875" stroke="currentColor" stroke-width="1.25" stroke-linecap="round" stroke-linejoin="round"></path>
    <path d="M1.66663 7.49996C1.66663 4.27496 4.27496 1.66663 7.49996 1.66663L6.62496 3.12496" stroke="currentColor" stroke-width="1.25" stroke-linecap="round" stroke-linejoin="round"></path>
    <path d="M14.8519 7.40741H13L15.5443 3.73591H17.3156L14.8519 7.40741ZM19.6667 7.40741H17.9114V0H19.6667V7.40741ZM18.5556 3.23672V4.55717H16.2528C15.7483 4.55717 15.2813 4.48202 14.8519 4.33172C14.4224 4.17069 14.0789 3.92378 13.8213 3.59098C13.5636 3.24745 13.4348 2.80193 13.4348 2.25443C13.4348 1.70692 13.5636 1.27214 13.8213 0.95008C14.0789 0.617284 14.4224 0.375738 14.8519 0.225443C15.2813 0.0751476 15.7483 0 16.2528 0H18.5556V1.44928H16.3977C16.1294 1.44928 15.9039 1.48148 15.7214 1.54589C15.5389 1.61031 15.3994 1.70692 15.3027 1.83575C15.2061 1.96457 15.1578 2.13097 15.1578 2.33494C15.1578 2.54965 15.2061 2.72142 15.3027 2.85024C15.3994 2.97907 15.5389 3.07568 15.7214 3.1401C15.9039 3.20451 16.1294 3.23672 16.3977 3.23672H18.5556Z" fill="currentColor"></path>
    <path d="M1.71789 16.2797C1.71789 16.5004 1.77568 16.6843 1.89125 16.8314C2.01734 16.9785 2.18019 17.094 2.37983 17.1781C2.57946 17.2516 2.80536 17.2884 3.05753 17.2884C3.42527 17.2884 3.75624 17.2306 4.05043 17.1151C4.34463 16.9995 4.57578 16.8156 4.74389 16.5634C4.912 16.3113 4.99606 15.975 4.99606 15.5548L5.24823 16.3743C5.24823 16.8366 5.1274 17.2359 4.88574 17.5721C4.64408 17.8978 4.31836 18.15 3.90859 18.3286C3.49882 18.4967 3.04177 18.5808 2.53743 18.5808C2.06462 18.5808 1.63383 18.4967 1.24507 18.3286C0.866824 18.1605 0.562122 17.9136 0.330969 17.5879C0.110323 17.2516 0 16.8366 0 16.3428C0 15.849 0.126083 15.4234 0.378251 15.0662C0.630418 14.709 0.987654 14.4358 1.44996 14.2467C1.92277 14.0575 2.47439 13.963 3.10481 13.963C3.52509 13.963 3.89808 14.0155 4.2238 14.1206C4.56002 14.2256 4.83846 14.3465 5.0591 14.4831C5.27975 14.6196 5.4321 14.7405 5.51615 14.8455V15.7439C5.19044 15.5022 4.85947 15.3289 4.52325 15.2238C4.18702 15.1082 3.79827 15.0504 3.35697 15.0504C2.99974 15.0504 2.69504 15.103 2.44287 15.208C2.20121 15.3026 2.01734 15.4444 1.89125 15.6336C1.77568 15.8122 1.71789 16.0276 1.71789 16.2797ZM1.33964 13.0804L0.661938 11.8668C0.987654 11.6672 1.40268 11.4728 1.90701 11.2837C2.41135 11.0946 2.98923 11 3.64066 11C4.23956 11 4.76491 11.0893 5.21671 11.2679C5.66851 11.4465 6.02049 11.704 6.27266 12.0402C6.53533 12.3659 6.66667 12.7704 6.66667 13.2537V18.4232H4.99606V13.4429C4.99606 13.1066 4.85422 12.8492 4.57053 12.6706C4.29735 12.4815 3.96112 12.3869 3.56186 12.3869C3.21513 12.3869 2.89467 12.4289 2.60047 12.513C2.30628 12.5971 2.04886 12.6969 1.82821 12.8125C1.61807 12.9175 1.45521 13.0068 1.33964 13.0804Z" fill="currentColor"></path>
  </symbol>
  <symbol fill="none" xmlns="http://www.w3.org/2000/svg" viewBox="0 0 20 20" id="ic_sort_a">
    <path d="M18.3333 12.5C18.3333 15.725 15.725 18.3333 12.5 18.3333L13.375 16.875" stroke="currentColor" stroke-width="1.25" stroke-linecap="round" stroke-linejoin="round"></path>
    <path d="M1.66675 7.49996C1.66675 4.27496 4.27508 1.66663 7.50008 1.66663L6.62508 3.12496" stroke="currentColor" stroke-width="1.25" stroke-linecap="round" stroke-linejoin="round"></path>
    <path d="M1.85185 18.4074H0L2.54428 14.7359H4.31562L1.85185 18.4074ZM6.66667 18.4074H4.91143V11H6.66667V18.4074ZM5.55556 14.2367V15.5572H3.25282C2.74826 15.5572 2.28127 15.482 1.85185 15.3317C1.42244 15.1707 1.0789 14.9238 0.821256 14.591C0.563607 14.2475 0.434783 13.8019 0.434783 13.2544C0.434783 12.7069 0.563607 12.2721 0.821256 11.9501C1.0789 11.6173 1.42244 11.3757 1.85185 11.2254C2.28127 11.0751 2.74826 11 3.25282 11H5.55556V12.4493H3.39775C3.12936 12.4493 2.90392 12.4815 2.72142 12.5459C2.53892 12.6103 2.39936 12.7069 2.30274 12.8357C2.20612 12.9646 2.15781 13.131 2.15781 13.3349C2.15781 13.5497 2.20612 13.7214 2.30274 13.8502C2.39936 13.9791 2.53892 14.0757 2.72142 14.1401C2.90392 14.2045 3.12936 14.2367 3.39775 14.2367H5.55556Z" fill="currentColor"></path>
    <path d="M14.7179 5.27975C14.7179 5.50039 14.7757 5.68427 14.8913 5.83136C15.0173 5.97846 15.1802 6.09404 15.3798 6.17809C15.5795 6.25164 15.8054 6.28842 16.0575 6.28842C16.4253 6.28842 16.7562 6.23063 17.0504 6.11505C17.3446 5.99948 17.5758 5.8156 17.7439 5.56344C17.912 5.31127 17.9961 4.97505 17.9961 4.55477L18.2482 5.37431C18.2482 5.83662 18.1274 6.23588 17.8857 6.5721C17.6441 6.89782 17.3184 7.14999 16.9086 7.32861C16.4988 7.49672 16.0418 7.58077 15.5374 7.58077C15.0646 7.58077 14.6338 7.49672 14.2451 7.32861C13.8668 7.16049 13.5621 6.91358 13.331 6.58786C13.1103 6.25164 13 5.83662 13 5.34279C13 4.84896 13.1261 4.42343 13.3783 4.06619C13.6304 3.70896 13.9877 3.43578 14.45 3.24665C14.9228 3.05753 15.4744 2.96296 16.1048 2.96296C16.5251 2.96296 16.8981 3.0155 17.2238 3.12057C17.56 3.22564 17.8385 3.34647 18.0591 3.48306C18.2797 3.61965 18.4321 3.74048 18.5162 3.84555V4.74389C18.1904 4.50223 17.8595 4.32887 17.5232 4.2238C17.187 4.10822 16.7983 4.05043 16.357 4.05043C15.9997 4.05043 15.695 4.10297 15.4429 4.20804C15.2012 4.3026 15.0173 4.44444 14.8913 4.63357C14.7757 4.81219 14.7179 5.02758 14.7179 5.27975ZM14.3396 2.08038L13.6619 0.866824C13.9877 0.667192 14.4027 0.472813 14.907 0.283688C15.4113 0.0945627 15.9892 0 16.6407 0C17.2396 0 17.7649 0.0893091 18.2167 0.267927C18.6685 0.446546 19.0205 0.703966 19.2727 1.04019C19.5353 1.3659 19.6667 1.77042 19.6667 2.25374V7.42317H17.9961V2.44287C17.9961 2.10665 17.8542 1.84923 17.5705 1.67061C17.2973 1.48148 16.9611 1.38692 16.5619 1.38692C16.2151 1.38692 15.8947 1.42895 15.6005 1.513C15.3063 1.59706 15.0489 1.69687 14.8282 1.81245C14.6181 1.91752 14.4552 2.00683 14.3396 2.08038Z" fill="currentColor"></path>
  </symbol>
  <symbol fill="none" xmlns="http://www.w3.org/2000/svg" viewBox="0 0 20 20" id="ic_vk">
    <path d="M19.5481 4.81862C19.3389 5.48712 19.0328 6.12135 18.6397 6.70112L18.6556 6.67612C18.2822 7.29834 17.8364 8.01723 17.3181 8.83279C16.8736 9.47668 16.6384 9.81001 16.6122 9.83279C16.4934 9.98152 16.4166 10.1593 16.3897 10.3478L16.3889 10.3536C16.4101 10.5234 16.489 10.6808 16.6122 10.7995L16.9456 11.1711C18.7289 13.0039 19.732 14.2672 19.9547 14.9611C19.997 15.0751 20.0106 15.1977 19.9943 15.3182C19.978 15.4387 19.9324 15.5533 19.8614 15.652L19.8631 15.6495C19.7792 15.736 19.6769 15.8026 19.5638 15.8442C19.4507 15.8859 19.3297 15.9017 19.2097 15.8903H19.2131H17.0164C16.7356 15.8903 16.4772 15.792 16.2747 15.6286L16.2772 15.6303C15.9881 15.3932 15.7227 15.1287 15.4847 14.8403L15.4772 14.8303C15.0933 14.3964 14.7528 14.0311 14.4556 13.7345C13.4656 12.7933 12.735 12.3228 12.2639 12.3228C12.1119 12.3092 11.9598 12.3489 11.8339 12.4353L11.8364 12.4336C11.7823 12.5014 11.7426 12.5796 11.7197 12.6632C11.6968 12.7469 11.6911 12.8344 11.7031 12.9203V12.917C11.6707 13.3058 11.6601 13.6961 11.6714 14.0861V14.072V15.0378C11.6951 15.1532 11.6869 15.2728 11.6479 15.3839C11.6089 15.495 11.5404 15.5934 11.4497 15.6686L11.4489 15.6695C11.0269 15.8601 10.5623 15.9368 10.1014 15.892L10.1122 15.8928C8.85073 15.8711 7.61903 15.5058 6.54974 14.8361L6.57891 14.8528C5.3459 14.1094 4.28904 13.1072 3.48141 11.9153L3.45891 11.8803C2.67494 10.8349 1.98582 9.72155 1.39974 8.55362L1.34141 8.42529C0.950873 7.66899 0.607712 6.88915 0.313906 6.09029L0.263906 5.93612C0.127686 5.5214 0.0409728 5.09203 0.00557292 4.65695L0.00390625 4.63612C0.00390625 4.21501 0.251684 4.00445 0.74724 4.00445H2.93891C3.16048 3.9871 3.38043 4.05407 3.55474 4.19195L3.55307 4.19029C3.71974 4.37279 3.84307 4.59695 3.90391 4.84695L3.90641 4.85695C4.26848 5.89388 4.71065 6.90109 5.22891 7.86945L5.17307 7.75529C5.54765 8.51614 6.00096 9.23563 6.52557 9.90195L6.50641 9.87612C6.95085 10.4217 7.29752 10.6945 7.54641 10.6945L7.57307 10.6953C7.63167 10.6954 7.68925 10.68 7.74002 10.6508C7.79078 10.6215 7.83294 10.5794 7.86224 10.5286L7.86307 10.527C7.94286 10.3181 7.97448 10.0939 7.95557 9.87112V9.87612V6.64362C7.94 6.27712 7.84923 5.91773 7.68891 5.58779L7.69557 5.60362C7.59836 5.39393 7.47212 5.19896 7.32057 5.02445L7.32307 5.02779C7.18333 4.88828 7.09243 4.70734 7.06391 4.51195L7.06307 4.50695C7.06307 4.36529 7.12807 4.23779 7.22974 4.15445L7.23057 4.15362C7.3352 4.0578 7.47204 4.00485 7.61391 4.00529H11.0756C11.1625 3.99515 11.2505 4.00674 11.3318 4.03903C11.4131 4.07132 11.4851 4.12329 11.5414 4.19029L11.5422 4.19112C11.6475 4.3856 11.6936 4.60662 11.6747 4.82695V4.82279V9.13362C11.6615 9.30364 11.701 9.47362 11.7881 9.62029L11.7864 9.61695C11.8169 9.66256 11.8582 9.69996 11.9066 9.72583C11.955 9.7517 12.009 9.76525 12.0639 9.76529C12.2044 9.75616 12.3408 9.70954 12.4572 9.63029L12.4547 9.63195C12.6814 9.47612 12.8764 9.29862 13.0456 9.09779L13.0489 9.09362C13.5637 8.5111 14.0253 7.88359 14.4281 7.21862L14.4606 7.16029C14.7472 6.68529 15.0572 6.10029 15.3381 5.49945L15.3897 5.37695L15.7614 4.63362C15.8268 4.44142 15.9531 4.27575 16.121 4.16164C16.2889 4.04753 16.4894 3.99119 16.6922 4.00112H16.6897H18.8822C19.4745 4.00112 19.6967 4.27362 19.5489 4.81862H19.5481Z" fill="currentColor"></path>
  </symbol>
</svg>