<svg width="0" height="0" class="hidden">
  <symbol fill="none" xmlns="http://www.w3.org/2000/svg" viewBox="0 0 20 20" id="ic_arr_hor">
    <path d="M13.5 4L7 10.5L13.5 17" stroke="currentColor" stroke-width="1.5"></path>
  </symbol>
  <symbol fill="none" xmlns="http://www.w3.org/2000/svg" viewBox="0 0 20 20" id="ic_arr_ver">
    <path d="M5.5 7.75L10 12.25L14.5 7.75" stroke="currentColor" stroke-width="1.5" stroke-linecap="round" stroke-linejoin="round"></path>
  </symbol>
  <symbol fill="none" xmlns="http://www.w3.org/2000/svg" viewBox="0 0 22 18" id="ic_arrow_hor">
    <path d="M11.6129 1L20 9M20 9L11.6129 17M20 9H0" stroke="currentColor" stroke-width="1.5"></path>
  </symbol>
  <symbol fill="none" xmlns="http://www.w3.org/2000/svg" viewBox="0 0 16 16" id="ic_search">
    <path d="M14 14L11.1333 11.1333M12.6667 7.33333C12.6667 10.2789 10.2789 12.6667 7.33333 12.6667C4.38781 12.6667 2 10.2789 2 7.33333C2 4.38781 4.38781 2 7.33333 2C10.2789 2 12.6667 4.38781 12.6667 7.33333Z" stroke="currentColor" stroke-width="1.33333" stroke-linecap="round" stroke-linejoin="round"></path>
  </symbol>
  <symbol fill="none" xmlns="http://www.w3.org/2000/svg" viewBox="0 0 20 20" id="ic_sort">
    <path d="M18.3333 12.5C18.3333 15.725 15.725 18.3333 12.5 18.3333L13.375 16.875" stroke="currentColor" stroke-width="1.25" stroke-linecap="round" stroke-linejoin="round"></path>
    <path d="M1.66663 7.49996C1.66663 4.27496 4.27496 1.66663 7.49996 1.66663L6.62496 3.12496" stroke="currentColor" stroke-width="1.25" stroke-linecap="round" stroke-linejoin="round"></path>
    <path d="M14.8519 7.40741H13L15.5443 3.73591H17.3156L14.8519 7.40741ZM19.6667 7.40741H17.9114V0H19.6667V7.40741ZM18.5556 3.23672V4.55717H16.2528C15.7483 4.55717 15.2813 4.48202 14.8519 4.33172C14.4224 4.17069 14.0789 3.92378 13.8213 3.59098C13.5636 3.24745 13.4348 2.80193 13.4348 2.25443C13.4348 1.70692 13.5636 1.27214 13.8213 0.95008C14.0789 0.617284 14.4224 0.375738 14.8519 0.225443C15.2813 0.0751476 15.7483 0 16.2528 0H18.5556V1.44928H16.3977C16.1294 1.44928 15.9039 1.48148 15.7214 1.54589C15.5389 1.61031 15.3994 1.70692 15.3027 1.83575C15.2061 1.96457 15.1578 2.13097 15.1578 2.33494C15.1578 2.54965 15.2061 2.72142 15.3027 2.85024C15.3994 2.97907 15.5389 3.07568 15.7214 3.1401C15.9039 3.20451 16.1294 3.23672 16.3977 3.23672H18.5556Z" fill="currentColor"></path>
    <path d="M1.71789 16.2797C1.71789 16.5004 1.77568 16.6843 1.89125 16.8314C2.01734 16.9785 2.18019 17.094 2.37983 17.1781C2.57946 17.2516 2.80536 17.2884 3.05753 17.2884C3.42527 17.2884 3.75624 17.2306 4.05043 17.1151C4.34463 16.9995 4.57578 16.8156 4.74389 16.5634C4.912 16.3113 4.99606 15.975 4.99606 15.5548L5.24823 16.3743C5.24823 16.8366 5.1274 17.2359 4.88574 17.5721C4.64408 17.8978 4.31836 18.15 3.90859 18.3286C3.49882 18.4967 3.04177 18.5808 2.53743 18.5808C2.06462 18.5808 1.63383 18.4967 1.24507 18.3286C0.866824 18.1605 0.562122 17.9136 0.330969 17.5879C0.110323 17.2516 0 16.8366 0 16.3428C0 15.849 0.126083 15.4234 0.378251 15.0662C0.630418 14.709 0.987654 14.4358 1.44996 14.2467C1.92277 14.0575 2.47439 13.963 3.10481 13.963C3.52509 13.963 3.89808 14.0155 4.2238 14.1206C4.56002 14.2256 4.83846 14.3465 5.0591 14.4831C5.27975 14.6196 5.4321 14.7405 5.51615 14.8455V15.7439C5.19044 15.5022 4.85947 15.3289 4.52325 15.2238C4.18702 15.1082 3.79827 15.0504 3.35697 15.0504C2.99974 15.0504 2.69504 15.103 2.44287 15.208C2.20121 15.3026 2.01734 15.4444 1.89125 15.6336C1.77568 15.8122 1.71789 16.0276 1.71789 16.2797ZM1.33964 13.0804L0.661938 11.8668C0.987654 11.6672 1.40268 11.4728 1.90701 11.2837C2.41135 11.0946 2.98923 11 3.64066 11C4.23956 11 4.76491 11.0893 5.21671 11.2679C5.66851 11.4465 6.02049 11.704 6.27266 12.0402C6.53533 12.3659 6.66667 12.7704 6.66667 13.2537V18.4232H4.99606V13.4429C4.99606 13.1066 4.85422 12.8492 4.57053 12.6706C4.29735 12.4815 3.96112 12.3869 3.56186 12.3869C3.21513 12.3869 2.89467 12.4289 2.60047 12.513C2.30628 12.5971 2.04886 12.6969 1.82821 12.8125C1.61807 12.9175 1.45521 13.0068 1.33964 13.0804Z" fill="currentColor"></path>
  </symbol>
  <symbol fill="none" xmlns="http://www.w3.org/2000/svg" viewBox="0 0 20 20" id="ic_sort_a">
    <path d="M18.3333 12.5C18.3333 15.725 15.725 18.3333 12.5 18.3333L13.375 16.875" stroke="currentColor" stroke-width="1.25" stroke-linecap="round" stroke-linejoin="round"></path>
    <path d="M1.66675 7.49996C1.66675 4.27496 4.27508 1.66663 7.50008 1.66663L6.62508 3.12496" stroke="currentColor" stroke-width="1.25" stroke-linecap="round" stroke-linejoin="round"></path>
    <path d="M1.85185 18.4074H0L2.54428 14.7359H4.31562L1.85185 18.4074ZM6.66667 18.4074H4.91143V11H6.66667V18.4074ZM5.55556 14.2367V15.5572H3.25282C2.74826 15.5572 2.28127 15.482 1.85185 15.3317C1.42244 15.1707 1.0789 14.9238 0.821256 14.591C0.563607 14.2475 0.434783 13.8019 0.434783 13.2544C0.434783 12.7069 0.563607 12.2721 0.821256 11.9501C1.0789 11.6173 1.42244 11.3757 1.85185 11.2254C2.28127 11.0751 2.74826 11 3.25282 11H5.55556V12.4493H3.39775C3.12936 12.4493 2.90392 12.4815 2.72142 12.5459C2.53892 12.6103 2.39936 12.7069 2.30274 12.8357C2.20612 12.9646 2.15781 13.131 2.15781 13.3349C2.15781 13.5497 2.20612 13.7214 2.30274 13.8502C2.39936 13.9791 2.53892 14.0757 2.72142 14.1401C2.90392 14.2045 3.12936 14.2367 3.39775 14.2367H5.55556Z" fill="currentColor"></path>
    <path d="M14.7179 5.27975C14.7179 5.50039 14.7757 5.68427 14.8913 5.83136C15.0173 5.97846 15.1802 6.09404 15.3798 6.17809C15.5795 6.25164 15.8054 6.28842 16.0575 6.28842C16.4253 6.28842 16.7562 6.23063 17.0504 6.11505C17.3446 5.99948 17.5758 5.8156 17.7439 5.56344C17.912 5.31127 17.9961 4.97505 17.9961 4.55477L18.2482 5.37431C18.2482 5.83662 18.1274 6.23588 17.8857 6.5721C17.6441 6.89782 17.3184 7.14999 16.9086 7.32861C16.4988 7.49672 16.0418 7.58077 15.5374 7.58077C15.0646 7.58077 14.6338 7.49672 14.2451 7.32861C13.8668 7.16049 13.5621 6.91358 13.331 6.58786C13.1103 6.25164 13 5.83662 13 5.34279C13 4.84896 13.1261 4.42343 13.3783 4.06619C13.6304 3.70896 13.9877 3.43578 14.45 3.24665C14.9228 3.05753 15.4744 2.96296 16.1048 2.96296C16.5251 2.96296 16.8981 3.0155 17.2238 3.12057C17.56 3.22564 17.8385 3.34647 18.0591 3.48306C18.2797 3.61965 18.4321 3.74048 18.5162 3.84555V4.74389C18.1904 4.50223 17.8595 4.32887 17.5232 4.2238C17.187 4.10822 16.7983 4.05043 16.357 4.05043C15.9997 4.05043 15.695 4.10297 15.4429 4.20804C15.2012 4.3026 15.0173 4.44444 14.8913 4.63357C14.7757 4.81219 14.7179 5.02758 14.7179 5.27975ZM14.3396 2.08038L13.6619 0.866824C13.9877 0.667192 14.4027 0.472813 14.907 0.283688C15.4113 0.0945627 15.9892 0 16.6407 0C17.2396 0 17.7649 0.0893091 18.2167 0.267927C18.6685 0.446546 19.0205 0.703966 19.2727 1.04019C19.5353 1.3659 19.6667 1.77042 19.6667 2.25374V7.42317H17.9961V2.44287C17.9961 2.10665 17.8542 1.84923 17.5705 1.67061C17.2973 1.48148 16.9611 1.38692 16.5619 1.38692C16.2151 1.38692 15.8947 1.42895 15.6005 1.513C15.3063 1.59706 15.0489 1.69687 14.8282 1.81245C14.6181 1.91752 14.4552 2.00683 14.3396 2.08038Z" fill="currentColor"></path>
  </symbol>
</svg>