<svg width="0" height="0" class="hidden">
  <symbol fill="none" xmlns="http://www.w3.org/2000/svg" viewBox="0 0 20 20" id="ic_arr_hor">
    <path d="M13.5 4L7 10.5L13.5 17" stroke="currentColor" stroke-width="1.5"></path>
  </symbol>
  <symbol fill="none" xmlns="http://www.w3.org/2000/svg" viewBox="0 0 20 20" id="ic_arr_ver">
    <path d="M5.5 7.75L10 12.25L14.5 7.75" stroke="currentColor" stroke-width="1.5" stroke-linecap="round" stroke-linejoin="round"></path>
  </symbol>
  <symbol fill="none" xmlns="http://www.w3.org/2000/svg" viewBox="0 0 22 18" id="ic_arrow_hor">
    <path d="M11.6129 1L20 9M20 9L11.6129 17M20 9H0" stroke="currentColor" stroke-width="1.5"></path>
  </symbol>
  <symbol fill="none" xmlns="http://www.w3.org/2000/svg" viewBox="0 0 18 14" id="ic_email">
    <path d="M17.3327 3.28125V11.1687C17.3327 11.8064 17.0891 12.42 16.6516 12.884C16.2141 13.3479 15.6159 13.6272 14.9793 13.6646L14.8327 13.6687H3.16602C2.52834 13.6688 1.91475 13.4251 1.4508 12.9877C0.986843 12.5502 0.707593 11.952 0.670182 11.3154L0.666016 11.1687V3.28125L8.53685 8.52875L8.63352 8.58375C8.74744 8.63941 8.87256 8.66834 8.99935 8.66834C9.12614 8.66834 9.25126 8.63941 9.36518 8.58375L9.46185 8.52875L17.3327 3.28125Z" fill="currentColor"></path>
    <path d="M14.8329 0.335938C15.7329 0.335938 16.5221 0.810938 16.9621 1.5251L8.99961 6.83344L1.03711 1.5251C1.2461 1.18579 1.53318 0.901354 1.87442 0.695512C2.21565 0.48967 2.60115 0.368385 2.99878 0.341771L3.16628 0.335938H14.8329Z" fill="currentColor"></path>
  </symbol>
  <symbol fill="none" xmlns="http://www.w3.org/2000/svg" viewBox="0 0 20 20" id="ic_location">
    <path d="M10 1.25C8.17727 1.25207 6.42979 1.97706 5.14092 3.26592C3.85206 4.55479 3.12707 6.30227 3.125 8.125C3.125 14.0078 9.375 18.4508 9.64141 18.6367C9.74649 18.7103 9.87169 18.7498 10 18.7498C10.1283 18.7498 10.2535 18.7103 10.3586 18.6367C10.625 18.4508 16.875 14.0078 16.875 8.125C16.8729 6.30227 16.1479 4.55479 14.8591 3.26592C13.5702 1.97706 11.8227 1.25207 10 1.25ZM10 5.625C10.4945 5.625 10.9778 5.77162 11.3889 6.04633C11.8 6.32103 12.1205 6.71148 12.3097 7.16829C12.4989 7.62511 12.5484 8.12777 12.452 8.61273C12.3555 9.09768 12.1174 9.54314 11.7678 9.89277C11.4181 10.2424 10.9727 10.4805 10.4877 10.577C10.0028 10.6734 9.50011 10.6239 9.04329 10.4347C8.58648 10.2455 8.19603 9.92505 7.92133 9.51393C7.64662 9.1028 7.5 8.61945 7.5 8.125C7.5 7.46196 7.76339 6.82607 8.23223 6.35723C8.70107 5.88839 9.33696 5.625 10 5.625Z" fill="currentColor"></path>
  </symbol>
  <symbol fill="none" xmlns="http://www.w3.org/2000/svg" viewBox="0 0 20 20" id="ic_phone">
    <path d="M17.2969 4.49609L15.2168 2.41797C15.0701 2.27059 14.8957 2.15366 14.7036 2.07389C14.5115 1.99412 14.3056 1.95308 14.0977 1.95313C13.6738 1.95313 13.2754 2.11914 12.9766 2.41797L10.7383 4.65625C10.5909 4.80298 10.474 4.97738 10.3942 5.16944C10.3144 5.3615 10.2734 5.56743 10.2734 5.77539C10.2734 6.19922 10.4395 6.59766 10.7383 6.89648L12.375 8.5332C11.9919 9.37766 11.4592 10.1459 10.8027 10.8008C10.1479 11.4589 9.37975 11.9935 8.53516 12.3789L6.89844 10.7422C6.75171 10.5948 6.5773 10.4779 6.38525 10.3981C6.19319 10.3183 5.98726 10.2773 5.7793 10.2773C5.35547 10.2773 4.95703 10.4434 4.6582 10.7422L2.41797 12.9785C2.27042 13.1255 2.15339 13.3003 2.07362 13.4927C1.99384 13.6851 1.95289 13.8913 1.95313 14.0996C1.95313 14.5234 2.11914 14.9219 2.41797 15.2207L4.49414 17.2969C4.9707 17.7754 5.62891 18.0469 6.30469 18.0469C6.44727 18.0469 6.58399 18.0352 6.71875 18.0117C9.35156 17.5781 11.9629 16.1777 14.0703 14.0723C16.1758 11.9688 17.5742 9.35938 18.0137 6.71875C18.1465 5.91211 17.8789 5.08203 17.2969 4.49609Z" fill="currentColor"></path>
  </symbol>
  <symbol fill="none" xmlns="http://www.w3.org/2000/svg" viewBox="0 0 16 16" id="ic_search">
    <path d="M14 14L11.1333 11.1333M12.6667 7.33333C12.6667 10.2789 10.2789 12.6667 7.33333 12.6667C4.38781 12.6667 2 10.2789 2 7.33333C2 4.38781 4.38781 2 7.33333 2C10.2789 2 12.6667 4.38781 12.6667 7.33333Z" stroke="currentColor" stroke-width="1.33333" stroke-linecap="round" stroke-linejoin="round"></path>
  </symbol>
  <symbol fill="none" xmlns="http://www.w3.org/2000/svg" viewBox="0 0 20 20" id="ic_sort">
    <path d="M18.3333 12.5C18.3333 15.725 15.725 18.3333 12.5 18.3333L13.375 16.875" stroke="currentColor" stroke-width="1.25" stroke-linecap="round" stroke-linejoin="round"></path>
    <path d="M1.66663 7.49996C1.66663 4.27496 4.27496 1.66663 7.49996 1.66663L6.62496 3.12496" stroke="currentColor" stroke-width="1.25" stroke-linecap="round" stroke-linejoin="round"></path>
    <path d="M14.8519 7.40741H13L15.5443 3.73591H17.3156L14.8519 7.40741ZM19.6667 7.40741H17.9114V0H19.6667V7.40741ZM18.5556 3.23672V4.55717H16.2528C15.7483 4.55717 15.2813 4.48202 14.8519 4.33172C14.4224 4.17069 14.0789 3.92378 13.8213 3.59098C13.5636 3.24745 13.4348 2.80193 13.4348 2.25443C13.4348 1.70692 13.5636 1.27214 13.8213 0.95008C14.0789 0.617284 14.4224 0.375738 14.8519 0.225443C15.2813 0.0751476 15.7483 0 16.2528 0H18.5556V1.44928H16.3977C16.1294 1.44928 15.9039 1.48148 15.7214 1.54589C15.5389 1.61031 15.3994 1.70692 15.3027 1.83575C15.2061 1.96457 15.1578 2.13097 15.1578 2.33494C15.1578 2.54965 15.2061 2.72142 15.3027 2.85024C15.3994 2.97907 15.5389 3.07568 15.7214 3.1401C15.9039 3.20451 16.1294 3.23672 16.3977 3.23672H18.5556Z" fill="currentColor"></path>
    <path d="M1.71789 16.2797C1.71789 16.5004 1.77568 16.6843 1.89125 16.8314C2.01734 16.9785 2.18019 17.094 2.37983 17.1781C2.57946 17.2516 2.80536 17.2884 3.05753 17.2884C3.42527 17.2884 3.75624 17.2306 4.05043 17.1151C4.34463 16.9995 4.57578 16.8156 4.74389 16.5634C4.912 16.3113 4.99606 15.975 4.99606 15.5548L5.24823 16.3743C5.24823 16.8366 5.1274 17.2359 4.88574 17.5721C4.64408 17.8978 4.31836 18.15 3.90859 18.3286C3.49882 18.4967 3.04177 18.5808 2.53743 18.5808C2.06462 18.5808 1.63383 18.4967 1.24507 18.3286C0.866824 18.1605 0.562122 17.9136 0.330969 17.5879C0.110323 17.2516 0 16.8366 0 16.3428C0 15.849 0.126083 15.4234 0.378251 15.0662C0.630418 14.709 0.987654 14.4358 1.44996 14.2467C1.92277 14.0575 2.47439 13.963 3.10481 13.963C3.52509 13.963 3.89808 14.0155 4.2238 14.1206C4.56002 14.2256 4.83846 14.3465 5.0591 14.4831C5.27975 14.6196 5.4321 14.7405 5.51615 14.8455V15.7439C5.19044 15.5022 4.85947 15.3289 4.52325 15.2238C4.18702 15.1082 3.79827 15.0504 3.35697 15.0504C2.99974 15.0504 2.69504 15.103 2.44287 15.208C2.20121 15.3026 2.01734 15.4444 1.89125 15.6336C1.77568 15.8122 1.71789 16.0276 1.71789 16.2797ZM1.33964 13.0804L0.661938 11.8668C0.987654 11.6672 1.40268 11.4728 1.90701 11.2837C2.41135 11.0946 2.98923 11 3.64066 11C4.23956 11 4.76491 11.0893 5.21671 11.2679C5.66851 11.4465 6.02049 11.704 6.27266 12.0402C6.53533 12.3659 6.66667 12.7704 6.66667 13.2537V18.4232H4.99606V13.4429C4.99606 13.1066 4.85422 12.8492 4.57053 12.6706C4.29735 12.4815 3.96112 12.3869 3.56186 12.3869C3.21513 12.3869 2.89467 12.4289 2.60047 12.513C2.30628 12.5971 2.04886 12.6969 1.82821 12.8125C1.61807 12.9175 1.45521 13.0068 1.33964 13.0804Z" fill="currentColor"></path>
  </symbol>
  <symbol fill="none" xmlns="http://www.w3.org/2000/svg" viewBox="0 0 20 20" id="ic_sort_a">
    <path d="M18.3333 12.5C18.3333 15.725 15.725 18.3333 12.5 18.3333L13.375 16.875" stroke="currentColor" stroke-width="1.25" stroke-linecap="round" stroke-linejoin="round"></path>
    <path d="M1.66675 7.49996C1.66675 4.27496 4.27508 1.66663 7.50008 1.66663L6.62508 3.12496" stroke="currentColor" stroke-width="1.25" stroke-linecap="round" stroke-linejoin="round"></path>
    <path d="M1.85185 18.4074H0L2.54428 14.7359H4.31562L1.85185 18.4074ZM6.66667 18.4074H4.91143V11H6.66667V18.4074ZM5.55556 14.2367V15.5572H3.25282C2.74826 15.5572 2.28127 15.482 1.85185 15.3317C1.42244 15.1707 1.0789 14.9238 0.821256 14.591C0.563607 14.2475 0.434783 13.8019 0.434783 13.2544C0.434783 12.7069 0.563607 12.2721 0.821256 11.9501C1.0789 11.6173 1.42244 11.3757 1.85185 11.2254C2.28127 11.0751 2.74826 11 3.25282 11H5.55556V12.4493H3.39775C3.12936 12.4493 2.90392 12.4815 2.72142 12.5459C2.53892 12.6103 2.39936 12.7069 2.30274 12.8357C2.20612 12.9646 2.15781 13.131 2.15781 13.3349C2.15781 13.5497 2.20612 13.7214 2.30274 13.8502C2.39936 13.9791 2.53892 14.0757 2.72142 14.1401C2.90392 14.2045 3.12936 14.2367 3.39775 14.2367H5.55556Z" fill="currentColor"></path>
    <path d="M14.7179 5.27975C14.7179 5.50039 14.7757 5.68427 14.8913 5.83136C15.0173 5.97846 15.1802 6.09404 15.3798 6.17809C15.5795 6.25164 15.8054 6.28842 16.0575 6.28842C16.4253 6.28842 16.7562 6.23063 17.0504 6.11505C17.3446 5.99948 17.5758 5.8156 17.7439 5.56344C17.912 5.31127 17.9961 4.97505 17.9961 4.55477L18.2482 5.37431C18.2482 5.83662 18.1274 6.23588 17.8857 6.5721C17.6441 6.89782 17.3184 7.14999 16.9086 7.32861C16.4988 7.49672 16.0418 7.58077 15.5374 7.58077C15.0646 7.58077 14.6338 7.49672 14.2451 7.32861C13.8668 7.16049 13.5621 6.91358 13.331 6.58786C13.1103 6.25164 13 5.83662 13 5.34279C13 4.84896 13.1261 4.42343 13.3783 4.06619C13.6304 3.70896 13.9877 3.43578 14.45 3.24665C14.9228 3.05753 15.4744 2.96296 16.1048 2.96296C16.5251 2.96296 16.8981 3.0155 17.2238 3.12057C17.56 3.22564 17.8385 3.34647 18.0591 3.48306C18.2797 3.61965 18.4321 3.74048 18.5162 3.84555V4.74389C18.1904 4.50223 17.8595 4.32887 17.5232 4.2238C17.187 4.10822 16.7983 4.05043 16.357 4.05043C15.9997 4.05043 15.695 4.10297 15.4429 4.20804C15.2012 4.3026 15.0173 4.44444 14.8913 4.63357C14.7757 4.81219 14.7179 5.02758 14.7179 5.27975ZM14.3396 2.08038L13.6619 0.866824C13.9877 0.667192 14.4027 0.472813 14.907 0.283688C15.4113 0.0945627 15.9892 0 16.6407 0C17.2396 0 17.7649 0.0893091 18.2167 0.267927C18.6685 0.446546 19.0205 0.703966 19.2727 1.04019C19.5353 1.3659 19.6667 1.77042 19.6667 2.25374V7.42317H17.9961V2.44287C17.9961 2.10665 17.8542 1.84923 17.5705 1.67061C17.2973 1.48148 16.9611 1.38692 16.5619 1.38692C16.2151 1.38692 15.8947 1.42895 15.6005 1.513C15.3063 1.59706 15.0489 1.69687 14.8282 1.81245C14.6181 1.91752 14.4552 2.00683 14.3396 2.08038Z" fill="currentColor"></path>
  </symbol>
  <symbol fill="none" xmlns="http://www.w3.org/2000/svg" viewBox="0 0 16 17" id="ic_video_play">
    <path d="M14.6487 6.73123C16.0706 7.48172 16.0706 9.51828 14.6486 10.2688L2.93351 16.4518C1.60161 17.1547 8.6596e-08 16.189 1.5861e-07 14.683L7.49913e-07 2.31702C8.21926e-07 0.810988 1.60161 -0.154706 2.93352 0.548245L14.6487 6.73123Z" fill="currentColor"></path>
  </symbol>
</svg>